<?xml version="1.0" standalone="no"?>
<!DOCTYPE svg PUBLIC "-//W3C//DTD SVG 20010904//EN"
 "http://www.w3.org/TR/2001/REC-SVG-20010904/DTD/svg10.dtd">
<svg version="1.0" xmlns="http://www.w3.org/2000/svg"
 width="1120.000000pt" height="1120.000000pt" viewBox="0 0 1120.000000 1120.000000"
 preserveAspectRatio="xMidYMid meet">
<metadata>
Created by potrace 1.11, written by Peter Selinger 2001-2013
</metadata>
<g transform="translate(0.000000,1120.000000) scale(0.100000,-0.100000)"
fill="#000000" stroke="none">
<path d="M8501 10959 c-80 -31 -103 -47 -178 -135 -22 -26 -49 -40 -88 -47
-16 -3 -41 -8 -55 -11 -14 -3 -43 -8 -65 -11 -78 -12 -90 -14 -120 -19 -16 -4
-41 -9 -55 -12 -14 -3 -41 -7 -60 -10 -19 -2 -42 -7 -50 -9 -8 -3 -33 -7 -55
-10 -51 -8 -84 -13 -115 -20 -14 -3 -41 -8 -60 -11 -60 -10 -75 -12 -77 -14
-2 -2 -7 -3 -12 -4 -20 -3 -72 -48 -86 -76 -9 -17 -52 -135 -96 -263 -44 -128
-84 -241 -88 -252 -5 -11 -16 -42 -26 -70 -9 -27 -19 -57 -22 -65 -4 -8 -7
-17 -7 -20 -1 -3 -6 -18 -13 -35 -14 -37 -21 -59 -20 -65 0 -3 -6 -16 -13 -30
-8 -14 -13 -28 -13 -31 6 -19 -81 -96 -184 -165 -65 -43 -122 -83 -128 -87
-41 -31 -158 -107 -166 -107 -5 0 -9 -4 -9 -10 0 -5 -6 -10 -14 -10 -8 0 -16
-4 -18 -8 -2 -7 -408 -282 -465 -317 -9 -5 -22 -13 -27 -18 -52 -38 -129 -87
-136 -87 -4 0 -10 -4 -12 -8 -1 -5 -29 -25 -61 -46 l-59 -37 -26 33 c-15 17
-347 353 -738 746 l-711 714 -49 -3 c-27 -1 -58 -6 -69 -10 -18 -6 -101 -23
-175 -35 -14 -3 -36 -7 -50 -9 -14 -3 -38 -8 -55 -11 -16 -4 -37 -8 -45 -9 -8
-1 -31 -5 -50 -9 -19 -4 -44 -9 -55 -11 -11 -2 -21 -4 -22 -5 -2 -2 -11 -3
-20 -4 -10 -1 -43 -7 -73 -14 -30 -6 -66 -13 -80 -16 -14 -2 -36 -7 -50 -10
-14 -3 -36 -8 -50 -10 -14 -3 -68 -14 -120 -24 -52 -11 -111 -23 -130 -26 -19
-3 -46 -8 -60 -11 -14 -3 -36 -7 -50 -10 -14 -3 -36 -7 -50 -10 -14 -3 -36 -7
-50 -10 -14 -2 -45 -8 -70 -14 -49 -11 -86 -18 -139 -27 -33 -6 -67 -13 -86
-18 -12 -3 -71 -15 -105 -20 -14 -3 -25 -5 -25 -6 0 -1 -11 -3 -25 -5 -14 -2
-36 -6 -50 -9 -44 -10 -114 -24 -145 -29 -73 -12 -189 -39 -210 -49 -27 -12
-37 -37 -59 -153 -9 -44 -19 -91 -22 -105 -3 -14 -7 -37 -8 -51 -2 -14 -5 -30
-8 -35 -3 -5 -9 -31 -13 -59 -5 -27 -10 -57 -12 -65 -2 -8 -5 -24 -7 -35 -4
-23 -65 -320 -72 -350 -3 -11 -7 -36 -10 -55 -3 -19 -10 -53 -16 -75 -6 -22
-12 -53 -14 -70 -2 -16 -6 -41 -9 -55 -6 -24 -21 -92 -30 -135 -2 -11 -4 -20
-5 -20 -1 0 -3 -9 -4 -20 -2 -11 -7 -40 -11 -65 -5 -25 -10 -54 -11 -65 -2
-11 -8 -39 -13 -63 -6 -23 -14 -59 -17 -80 -3 -20 -7 -45 -10 -54 -5 -18 -13
-54 -19 -93 -2 -11 -6 -31 -9 -45 -3 -14 -8 -38 -11 -55 -3 -16 -16 -86 -30
-155 -33 -158 -35 -176 -28 -213 5 -23 118 -141 474 -496 728 -726 1157 -1144
1192 -1164 31 -17 63 -17 137 -2 14 3 36 8 50 10 14 3 48 9 75 15 28 6 65 13
84 16 39 6 49 9 111 22 25 6 61 13 80 16 19 3 46 8 60 11 14 3 36 7 50 10 14
3 36 7 50 10 14 4 34 7 45 9 11 2 34 6 50 9 17 4 44 9 60 12 45 7 75 14 93 19
9 3 33 8 52 11 35 4 45 6 135 25 104 21 179 36 227 44 15 3 31 7 36 10 4 2 26
7 47 9 22 3 47 8 55 11 8 3 29 7 45 10 17 3 41 7 55 11 31 7 63 13 115 21 22
3 42 7 45 9 14 8 100 -100 100 -126 0 -5 4 -9 9 -9 5 0 12 -11 15 -25 4 -14
11 -25 16 -25 6 0 10 -5 10 -10 0 -6 25 -54 56 -108 32 -53 71 -122 87 -152
17 -30 34 -56 39 -58 4 -2 8 -11 8 -20 0 -8 6 -23 14 -31 7 -9 26 -41 42 -71
16 -30 32 -57 35 -60 4 -4 51 -86 94 -165 29 -55 69 -105 89 -112 11 -3 264
-7 561 -8 411 -1 548 2 572 11 29 11 80 76 106 134 4 8 16 29 26 45 22 36 125
215 134 236 4 8 16 28 27 44 11 17 24 39 29 50 10 24 87 105 99 105 5 0 17 9
27 20 10 11 22 20 28 20 5 0 26 14 47 30 21 17 40 30 43 30 3 0 27 15 52 33
26 17 54 37 63 42 28 17 197 130 202 135 3 3 37 26 75 50 39 25 75 49 81 55 6
5 27 19 47 30 20 11 37 23 37 27 0 5 7 8 15 8 8 0 15 5 15 10 0 6 4 10 10 10
11 0 103 62 108 73 2 4 8 7 13 7 4 0 50 28 101 63 82 55 148 98 213 139 11 7
22 15 25 19 3 3 21 15 40 27 61 37 83 61 94 105 7 29 10 190 9 483 -2 241 -4
444 -5 451 -2 14 -5 12 -72 -36 -39 -28 -58 -35 -95 -34 -62 0 -238 21 -252
29 -7 4 96 321 117 359 22 38 70 84 184 175 49 39 109 98 111 108 6 39 3 284
-4 305 -8 24 -48 61 -113 104 -11 7 -55 36 -99 65 -44 29 -84 56 -90 60 -5 5
-59 41 -120 80 -60 40 -115 77 -122 83 -7 5 -75 51 -152 100 -79 51 -140 97
-140 106 -1 8 7 24 17 35 10 10 31 37 47 59 17 21 37 47 45 56 23 27 31 37
107 139 39 52 81 108 95 123 33 37 90 57 137 46 20 -4 56 -10 81 -14 25 -3 61
-8 80 -11 42 -6 90 -12 150 -19 25 -3 59 -9 75 -12 17 -3 48 -7 70 -8 22 -2
40 -4 40 -5 0 -1 14 -4 30 -6 62 -9 73 -15 133 -73 69 -68 113 -90 187 -95
100 -6 205 57 256 154 33 62 34 176 2 236 -26 48 -79 104 -117 122 -14 6 -37
17 -50 23 -57 27 -156 10 -221 -37 -57 -41 -128 -50 -255 -31 -70 11 -136 20
-160 22 -58 6 -137 16 -160 20 -14 2 -45 7 -70 10 -48 6 -85 12 -85 15 0 2
-42 6 -131 14 -46 4 -66 1 -86 -12 -26 -17 -78 -75 -78 -86 0 -3 -7 -14 -16
-23 -8 -10 -33 -43 -55 -73 -87 -120 -279 -368 -307 -396 -13 -14 -14 -13
-135 66 -20 14 -40 36 -44 50 -6 22 27 132 70 240 6 14 11 27 11 30 1 5 33 94
73 203 14 37 26 73 27 80 1 6 10 29 19 51 9 21 17 42 17 47 0 5 13 15 29 23
28 15 41 18 136 36 28 5 61 11 75 14 14 3 52 10 85 15 33 6 71 14 85 17 109
24 197 36 252 35 44 0 71 -8 126 -37 54 -28 82 -37 123 -37 171 -1 315 181
267 338 -5 16 -10 35 -12 40 -3 15 -39 68 -61 90 -31 31 -68 52 -116 66 -55
15 -70 17 -91 7 -9 -4 -18 -4 -20 1 -2 5 -13 5 -27 0z m-4307 -1188 c20 -1
1263 -1247 1284 -1288 11 -20 12 -128 2 -128 -2 0 -4 -9 -6 -20 -1 -11 -9 -54
-18 -95 -8 -41 -18 -86 -21 -100 -2 -14 -14 -72 -26 -130 -11 -58 -23 -114
-25 -125 -2 -11 -8 -42 -14 -70 -5 -27 -12 -61 -15 -75 -3 -14 -8 -41 -12 -60
-4 -19 -8 -37 -8 -40 -1 -3 -5 -27 -10 -55 -5 -27 -10 -52 -10 -55 -4 -15 -26
-119 -31 -140 -3 -14 -7 -36 -10 -50 -2 -14 -14 -68 -25 -120 -12 -52 -22
-106 -24 -120 -1 -14 -7 -43 -13 -65 -6 -22 -13 -56 -16 -76 -10 -67 -13 -69
-116 -84 -8 -1 -51 -9 -95 -19 -44 -9 -91 -18 -105 -21 -14 -3 -49 -10 -77
-16 -29 -5 -65 -12 -80 -14 -16 -2 -28 -4 -28 -5 0 -2 -28 -8 -133 -25 -23 -4
-45 -12 -48 -16 -3 -5 -9 -7 -13 -4 -5 2 -48 -4 -97 -15 -49 -12 -103 -23
-121 -25 -18 -3 -60 -12 -95 -20 -35 -7 -76 -16 -92 -19 -28 -5 -100 -20 -156
-32 -14 -3 -36 -7 -50 -10 -14 -3 -32 -7 -40 -9 -8 -2 -28 -7 -45 -10 -16 -2
-39 -7 -50 -9 -105 -24 -134 -27 -150 -19 -36 20 -1274 1267 -1286 1294 -7 19
-9 45 -3 76 4 27 8 56 10 66 1 9 2 19 3 22 0 3 1 7 2 10 0 2 7 31 14 62 7 32
16 78 20 103 4 24 8 48 11 51 3 6 13 57 20 104 1 11 3 20 4 20 2 0 5 14 13 60
3 17 24 120 47 230 46 227 44 214 71 355 11 58 24 123 29 145 9 39 38 180 46
220 2 11 5 28 7 39 4 19 34 42 44 32 3 -3 13 -1 23 4 9 5 32 12 51 15 19 3 41
8 49 10 8 2 31 7 50 10 19 3 44 8 55 12 11 3 31 7 45 9 14 2 70 13 125 24 55
12 177 37 270 56 94 20 181 37 195 39 14 2 25 4 25 5 0 2 15 5 60 13 17 3 41
8 55 12 25 5 49 10 112 20 17 3 34 8 37 10 4 2 24 6 46 10 22 3 87 16 145 28
93 21 121 23 194 18z m2616 -1383 c19 -9 51 -21 70 -28 19 -7 44 -16 55 -20
11 -4 47 -18 80 -30 33 -12 67 -25 76 -30 9 -5 35 -13 57 -20 43 -11 59 -29
103 -110 13 -24 31 -53 39 -63 8 -9 15 -21 15 -25 1 -8 39 -72 53 -88 5 -6 12
-19 16 -30 5 -17 -12 -28 -122 -82 -70 -35 -136 -65 -147 -66 -11 -2 -40 5
-65 15 -25 10 -81 32 -125 49 -44 17 -87 33 -95 35 -29 7 -120 42 -127 48 -3
4 -13 7 -20 7 -8 0 -22 8 -32 18 -17 16 -115 170 -174 274 l-27 47 107 52 c60
28 113 52 120 53 7 1 16 6 20 10 11 11 82 2 123 -16z"/>
<path d="M4560 6102 c0 -6 -85 -157 -120 -212 -18 -29 -115 -195 -123 -210 -4
-8 -16 -28 -27 -45 -11 -16 -23 -37 -27 -45 -3 -8 -20 -37 -37 -65 -61 -98
-69 -119 -62 -158 4 -21 11 -37 15 -37 5 0 11 -8 15 -17 6 -20 38 -76 53 -95
6 -7 22 -33 35 -58 34 -61 59 -105 97 -168 17 -29 31 -57 31 -62 0 -6 5 -10
10 -10 6 0 10 -5 10 -10 0 -9 41 -82 168 -300 11 -19 33 -57 48 -85 14 -27 35
-62 45 -77 11 -14 19 -31 19 -37 0 -6 5 -11 10 -11 6 0 10 -5 10 -10 0 -6 21
-47 48 -91 72 -123 82 -140 111 -192 14 -26 31 -56 36 -65 6 -9 23 -41 40 -70
16 -30 42 -60 58 -68 24 -13 141 -15 815 -15 433 0 813 0 845 1 52 0 60 3 92
36 19 20 35 39 35 44 0 5 23 47 50 95 28 48 50 89 50 93 0 3 6 13 14 21 7 9
27 41 43 71 17 30 42 75 57 100 15 25 29 53 33 63 3 9 9 17 14 17 5 0 9 6 9
14 0 8 6 21 13 28 11 13 77 131 77 140 0 2 -372 3 -827 3 -456 0 -845 3 -865
8 -46 11 -53 20 -118 142 -29 55 -61 112 -71 127 -11 14 -19 28 -19 31 0 4
-98 174 -120 207 -6 8 -13 22 -17 30 -4 8 -18 33 -32 55 -27 43 -62 104 -82
145 -7 14 -18 32 -25 40 -6 8 -23 35 -36 60 -14 25 -50 88 -80 140 -120 206
-149 256 -157 270 -6 8 -40 66 -77 128 -59 99 -84 130 -84 104z"/>
<path d="M3924 4609 c-41 -63 -47 -74 -95 -167 -41 -80 -42 -85 -29 -120 7
-20 21 -49 31 -64 11 -14 19 -31 19 -37 0 -6 5 -11 10 -11 6 0 9 -3 8 -7 -1
-5 5 -19 14 -33 35 -55 168 -292 168 -301 0 -5 5 -9 10 -9 6 0 10 -4 10 -9 0
-5 86 -159 191 -343 105 -183 200 -349 211 -368 29 -53 42 -74 50 -80 3 -3
332 -5 731 -5 623 1 727 3 742 15 21 17 105 145 105 159 0 5 3 11 8 13 6 3 62
101 62 109 0 2 -318 3 -706 2 -444 -1 -717 2 -734 9 -16 5 -39 24 -52 41 -27
36 -138 225 -138 234 0 4 -6 14 -14 22 -8 9 -26 39 -41 66 -14 28 -36 66 -47
85 -11 19 -54 94 -94 165 -41 72 -79 137 -84 145 -9 15 -39 67 -95 165 -16 28
-48 83 -72 123 -24 41 -43 78 -43 83 0 5 -3 9 -8 9 -4 0 -14 15 -21 33 -8 17
-27 52 -42 76 l-27 44 -28 -44z"/>
<path d="M4075 2948 c-9 -29 -5 -20 -48 -112 -20 -43 -37 -80 -37 -82 0 -2
-11 -27 -24 -56 -48 -106 -74 -164 -101 -228 -15 -36 -31 -72 -36 -80 -5 -8
-12 -22 -15 -30 -12 -30 -57 -136 -81 -190 -14 -30 -31 -68 -38 -85 -7 -16
-27 -60 -44 -97 -17 -37 -42 -94 -56 -127 -14 -33 -36 -84 -49 -113 -13 -29
-47 -107 -76 -173 -29 -66 -63 -142 -76 -170 -49 -110 -95 -214 -99 -225 -4
-12 -25 -60 -54 -123 -17 -37 -31 -69 -31 -72 0 -2 -20 -47 -45 -99 -25 -53
-45 -99 -45 -102 0 -3 -12 -31 -26 -62 -26 -56 -91 -204 -121 -272 -8 -19 -19
-43 -24 -53 -8 -15 -7 -18 7 -15 9 1 22 12 28 22 6 11 19 29 30 40 10 12 25
32 35 46 30 45 231 315 251 336 11 12 20 25 20 28 0 3 7 14 15 23 8 10 146
194 306 408 160 215 299 400 310 413 10 12 19 27 19 32 0 6 4 10 8 10 4 0 15
12 24 28 9 15 25 37 35 49 10 11 25 31 33 43 8 12 27 36 42 54 15 17 28 34 28
37 0 6 23 37 139 189 77 102 121 162 121 166 0 2 8 13 18 23 25 28 33 39 82
109 24 34 48 62 52 62 4 0 8 4 8 10 0 5 16 30 35 56 51 67 48 74 -32 74 -38 1
-115 2 -173 4 -102 3 -105 4 -128 32 -23 29 -88 142 -139 242 -15 28 -30 52
-34 52 -4 0 -10 -10 -14 -22z"/>
</g>
</svg>
